<svg id="Layer_1" fill="white" enable-background="new 0 0 509.478 509.478" height="512" viewBox="0 0 509.478 509.478" width="512"
    xmlns="http://www.w3.org/2000/svg">
    <g>
        <path d="m254.739 209.739c-24.814 0-45 20.187-45 45 2.471 59.699 87.538 59.681 90 0 0-24.813-20.187-45-45-45zm0 60c-8.272 0-15-6.729-15-15 .823-19.9 29.18-19.894 30 0 0 8.271-6.729 15-15 15z"/>
        <path d="m479.508 330.64c-7.256-23-24.661-48.968-50.935-75.901 26.279-26.939 43.687-52.914 50.938-75.918 17.036-6.414 29.19-22.874 29.19-42.125.18-37.415-44-58.543-72.886-35.279-24.145-5.839-56.559-4.071-94.638 5.229-2.654-9.408-5.574-18.395-8.756-26.88-38.283-106.361-117.091-106.349-155.369 0-3.182 8.485-6.102 17.472-8.757 26.88-38.078-9.303-70.492-11.069-94.638-5.229-28.898-23.267-73.063-2.13-72.885 35.28 0 19.25 12.154 35.71 29.19 42.124 7.252 23.004 24.659 48.979 50.938 75.918-26.279 26.939-43.687 52.914-50.938 75.917-17.036 6.415-29.191 22.874-29.191 42.126-.18 37.415 44.003 58.545 72.886 35.278 29.182 7.058 65.278 1.942 94.637-5.229 2.655 9.408 5.575 18.396 8.757 26.881 38.283 106.361 117.091 106.349 155.369 0 3.182-8.485 6.102-17.473 8.757-26.881 29.144 7.119 65.308 12.306 94.588 5.24 29.017 23.291 73.108 2.061 72.93-35.293.004-19.117-11.984-35.698-29.187-42.138zm-15.805-208.944c8.272 0 15 6.728 15 15-.823 19.9-29.18 19.894-30 0 0-8.271 6.728-15 15-15zm-44.316 7.234c-3.744 21.419 8.284 42.043 28.092 49.728-7.086 15.777-20.604 34.871-40.603 55.428-15.086-13.4-31.831-26.498-49.87-39.033-1.933-20.708-4.873-40.612-8.751-59.308 29.128-7.047 53.413-8.954 71.132-6.815zm-164.631 210.405c-25.362-12.21-50.568-26.513-73.55-41.629-1.905-27.627-2.006-56.842 0-85.934 23.205-15.263 48.653-29.657 73.533-41.637 24.035 11.572 49.446 25.802 73.534 41.645 1.916 27.794 1.993 57.006 0 85.925-23.923 15.735-49.444 30.038-73.517 41.63zm69.636-3.729c-1.414 10.275-3.099 20.261-5.049 29.892-9.344-3.034-19.051-6.533-29.085-10.529 11.667-6.172 22.506-12.304 34.134-19.363zm-105.162 19.368c-10.037 3.997-19.748 7.498-29.094 10.533-1.95-9.634-3.637-19.623-5.051-29.901 11.608 7.046 22.458 13.186 34.145 19.368zm-69.154-79.272c-9.243-7.034-17.807-14.043-25.681-20.963 7.874-6.92 16.437-13.929 25.681-20.963-.448 14.19-.449 27.715 0 41.926zm35.01-101.83c1.414-10.278 3.101-20.268 5.051-29.9 9.346 3.034 19.057 6.535 29.093 10.532-11.671 6.173-22.514 12.308-34.144 19.368zm105.163-19.367c10.036-3.998 19.747-7.498 29.093-10.533 1.95 9.633 3.636 19.622 5.051 29.9-11.606-7.045-22.454-13.184-34.144-19.367zm69.154 79.283c9.239 7.032 17.804 14.038 25.675 20.955-7.873 6.918-16.435 13.926-25.676 20.959.433-13.687.465-27.215.001-41.914zm-104.664-204.049c16.834 0 35.374 22.64 49.595 60.562 2.898 7.73 5.562 15.929 7.991 24.521-18.78 6.005-38.098 13.47-57.586 22.269-19.488-8.8-38.807-16.265-57.586-22.269 2.429-8.592 5.093-16.791 7.991-24.521 14.221-37.922 32.761-60.562 49.595-60.562zm-93.517 106.006c-3.878 18.695-6.819 38.6-8.751 59.308-18.039 12.535-34.784 25.633-49.87 39.033-19.998-20.557-33.517-39.65-40.603-55.428 19.776-7.673 31.843-28.269 28.092-49.728 17.72-2.139 42.004-.232 71.132 6.815zm-115.447-14.049c8.271 0 15 6.728 15 15-.823 19.9-29.18 19.894-30 0 0-8.271 6.729-15 15-15zm0 266.086c-8.271 0-15-6.729-15-15 .823-19.9 29.18-19.894 30 0 0 8.271-6.728 15-15 15zm44.316-7.234c3.743-21.419-8.284-42.043-28.092-49.728 7.086-15.777 20.604-34.871 40.603-55.428 15.086 13.4 31.831 26.498 49.87 39.033 1.932 20.708 4.873 40.612 8.751 59.308-29.129 7.047-53.413 8.954-71.132 6.815zm164.648 99.191c-16.834 0-35.374-22.64-49.595-60.561-2.898-7.73-5.562-15.93-7.991-24.521 18.779-6.005 38.098-13.47 57.586-22.27 19.488 8.8 38.806 16.265 57.586 22.27-2.429 8.592-5.093 16.79-7.991 24.521-14.221 37.921-32.761 60.561-49.595 60.561zm93.517-106.01c3.878-18.694 6.819-38.597 8.751-59.304 18.036-12.533 34.779-25.629 49.862-39.026 19.983 20.544 33.521 39.634 40.607 55.404-19.856 7.701-31.815 28.385-28.114 49.753-17.719 2.132-41.999.214-71.106-6.827zm115.443 14.05c-4.664 0-8.976-2.109-11.83-5.787l-.02-.024c-7.48-9.232-.864-24.239 11.85-24.188 19.935.79 19.852 29.218 0 29.999z"/>
    </g>
</svg>